<?xml version="1.0" encoding="UTF-8"?>
<svg width="377px" height="70px" viewBox="0 0 377 70" version="1.1" xmlns="http://www.w3.org/2000/svg" xmlns:xlink="http://www.w3.org/1999/xlink">
    <title>oapy-logo</title>
    <g id="Style-Guide" stroke="none" stroke-width="1" fill="none" fill-rule="evenodd">
        <g id="oapy-desktop-blue" transform="translate(-809.000000, -90.000000)">
            <g id="Header" transform="translate(335.000000, 0.000000)">
                <g id="oapy-logo" transform="translate(474.000000, 90.000000)">
                    <path d="M24.2595082,36.5960445 C30.7503197,36.5960445 35.4323478,33.0851768 35.4323478,25.4252837 C35.4323478,18.5105748 30.8563656,14.4685758 24.3655541,14.4685758 C18.0878349,14.4685758 13.1937149,17.7663908 13.1937149,25.6383363 C13.1937149,32.9791506 17.6626507,36.5960445 24.2595082,36.5960445 M0,25.6383363 C0,10.1064977 10.9597473,0 25.2179233,0 C39.369053,0 48.6260627,9.68139269 48.6260627,24.787126 C48.6260627,41.0641487 38.3045919,51.06362 23.3020935,51.06362 C10.0013321,51.06362 0,41.3832276 0,25.6383363" id="Fill-1" fill="#FFFFFF"></path>
                    <path d="M72.6697774,36.1701392 C77.6709437,36.1701392 81.9267871,32.6602718 81.9267871,27.9791148 L81.9267871,27.5540098 C80.2240496,27.1279045 77.2447591,26.8088256 74.3725149,26.8088256 C69.1592568,26.8088256 66.2860122,28.4042199 66.2860122,31.7020349 C66.2860122,34.1486396 67.8817034,36.1701392 72.6697774,36.1701392 M51.708698,36.9153234 C51.708698,25.3194575 60.2203849,20.7453271 70.8609939,20.7453271 C74.903745,20.7453271 78.6283584,21.2764583 81.9267871,22.8728529 L81.9267871,21.3824845 C81.9267871,17.2344594 80.3310959,14.3617494 74.6916532,14.3617494 C68.8391181,14.3617494 62.5613989,15.9571437 59.4760624,17.8726171 L58.6246937,17.8726171 C57.2410944,13.085434 56.390726,8.83038237 56.1776337,4.04319925 C62.7744912,1.27651548 69.3713487,0.000200049441 77.0326672,0.000200049441 C89.5881057,0.000200049441 95.9718708,4.89440962 95.9718708,17.3404856 L95.9718708,33.4044557 C95.9718708,36.9153234 97.1423779,37.8725599 100.546853,37.8725599 L102.037498,37.8725599 L102.037498,50.0005573 L83.0972941,50.0005573 L82.2459254,48.8302681 C82.9912482,41.59548 83.0972941,39.0428492 83.4164324,34.6807711 L82.67211,34.6807711 C80.4371419,43.6169796 75.8621602,51.0638201 65.5406894,51.0638201 C58.4116014,51.0638201 51.708698,46.4896896 51.708698,36.9153234" id="Fill-3" fill="#FFFFFF"></path>
                    <path d="M132.571024,36.7020707 C137.465144,36.7020707 142.360264,33.4042556 142.360264,25.851389 C142.360264,17.3412858 138.316513,14.6806282 133.954623,14.6806282 C128.740365,14.6806282 123.42006,19.680864 123.42006,24.787126 L123.42006,34.5745449 C125.228844,35.5327817 129.059503,36.7020707 132.571024,36.7020707 M123.42006,48.0848838 L123.42006,52.5539883 C123.42006,55.4256981 123.952291,56.4899611 128.740365,56.4899611 L134.273762,56.4899611 L134.273762,68.6169582 L101.076382,68.6169582 L101.076382,56.4899611 L105.545318,56.4899611 C109.268931,56.4899611 109.694115,55.4256981 109.694115,52.5539883 L109.694115,22.6596002 C109.694115,15.5318386 109.161884,12.6601289 100.969336,12.6601289 L100.969336,1.27731568 L124.165383,0.638157716 L124.697614,1.48936809 C123.740199,5.00023577 122.462645,9.68139269 121.718323,18.7236274 L122.462645,18.7236274 C124.910706,6.170525 131.294471,0.107026451 140.338388,0.107026451 C148.212799,0.107026451 156.08621,6.70265651 156.08621,23.1917317 C156.08621,42.9786219 144.275094,50.2134099 132.784116,50.2134099 C129.910872,50.2134099 126.825535,49.7873046 123.42006,48.0848838" id="Fill-5" fill="#FFFFFF"></path>
                    <path d="M158.955453,68.1915531 L160.65819,55.3193718 C163.956619,55.7444768 168.744693,56.0635557 172.681398,56.0635557 C178.746025,56.0635557 183.640145,53.191846 185.662021,48.5106891 L178.746025,48.5106891 L166.615771,18.5112749 C164.914034,14.2552231 162.786112,12.8718812 159.061499,12.765855 L159.061499,1.27701561 L186.301298,1.27701561 L186.301298,12.8718812 C180.023578,12.9789076 180.341716,14.4682757 181.938408,18.8303538 L189.173542,38.617244 L196.090538,18.93638 C197.792275,14.4682757 198.005367,12.9789076 191.727648,12.8718812 L191.727648,1.27701561 L216.093202,1.27701561 L216.093202,12.765855 C211.837359,12.8718812 209.922529,14.2552231 208.113746,18.6173011 L194.173708,54.5741876 C190.024911,65.8509746 183.002869,70 173.213629,70 C168.850739,70 165.55231,69.4678685 158.955453,68.1915531" id="Fill-7" fill="#FFFFFF"></path>
                    <path d="M222.635236,42.4053802 C219.801008,43.8217302 218.964646,45.2390805 219.145724,45.4571344 C219.801008,45.3841164 221.579779,44.4758919 222.635236,42.4053802 M221.726842,26.4924474 C220.599354,27.619726 219.036677,31.9788033 218.237331,36.9560334 C220.780432,32.8510189 222.162031,27.9097977 221.726842,26.4924474 M216.129418,48.0727808 C215.948339,42.732461 216.45756,37.6101951 217.511016,33.2141086 C218.384395,29.5812108 219.581913,26.6384835 220.63637,25.5122052 C221.943936,24.1678729 224.81418,24.7130076 222.088999,32.2698753 C221.3987,34.23136 220.490307,36.1198268 219.473867,37.7552309 C222.816314,35.1395845 226.122747,35.9027731 225.178337,39.8617515 C226.486904,39.4986618 227.794471,39.3176171 228.956974,39.3176171 C229.356147,39.3176171 229.684289,39.6446979 229.684289,40.0437965 C229.684289,40.4428952 229.356147,40.769976 228.956974,40.769976 C227.612392,40.769976 226.122747,41.0610479 224.633101,41.5701738 C224.414006,42.0422905 224.196912,42.550416 223.905786,43.0955508 C222.816314,45.2030716 221.035543,46.4743858 219.727977,46.8014666 C217.075828,47.4916372 215.839292,43.4226316 223.505613,40.4428952 C223.724708,39.7897337 224.160897,38.3723835 223.687692,37.8642579 C222.816314,36.8830154 217.984221,39.6076888 217.620064,43.4226316 C217.548032,44.9480086 217.548032,46.4743858 217.584048,47.9997628 C217.584048,48.3998617 217.292922,48.7629514 216.893749,48.7629514 L216.856733,48.7629514 C216.45756,48.7629514 216.129418,48.4728797 216.129418,48.0727808" id="Fill-9" fill="#C3DEF9"></path>
                    <path d="M234.88034,51.0157082 C232.809443,53.3772918 231.682955,55.3017674 231.064687,56.6100908 C230.011231,58.8266386 230.047246,60.0609436 230.266341,60.4610425 C230.483435,60.9331592 233.317663,60.3880245 234.88034,51.0157082 M235.243497,48.4720795 C235.570639,45.8934422 235.715702,43.2047778 235.715702,40.7701761 C232.082128,48.4720795 225.143122,46.8376756 229.794137,37.2823141 C229.938199,36.9192243 230.374388,36.7741885 230.737545,36.9562335 C231.102704,37.1372782 231.246766,37.573386 231.102704,37.9364757 C229.465995,41.3153108 229.066822,44.5121008 230.774562,44.1490111 C232.519317,43.7499125 234.62623,40.7701761 235.606655,36.7741885 C235.679686,36.4110987 236.006828,36.1930449 236.370986,36.230054 C236.697127,36.230054 236.988253,36.5201257 237.023268,36.8832154 C237.242363,39.280808 237.242363,42.9867239 236.879206,46.8736845 C239.205213,44.622128 241.566236,42.2595441 243.310992,39.5718799 C243.528086,39.2447991 244.00029,39.171781 244.327432,39.3898349 C244.655574,39.6078888 244.764621,40.0439966 244.545526,40.3710774 C242.365582,43.7139036 239.349276,46.4375767 236.624095,49.1622501 C236.261938,52.1059776 235.534623,55.8479024 234.263073,58.5355666 C230.629499,66.200461 223.289319,60.6430875 235.243497,48.4720795" id="Fill-11" fill="#C3DEF9"></path>
                    <polygon id="Fill-13" fill="#FFFFFF" points="250.101233 48.4568758 253.604751 48.4568758 253.604751 24.937063 250.101233 24.937063"></polygon>
                    <polygon id="Fill-15" fill="#FFFFFF" points="273.235254 48.4567757 273.235254 24.916958 268.327128 24.916958 264.975676 42.291252 261.486164 24.916958 256.369948 24.916958 256.369948 48.4567757 259.873466 48.4567757 259.873466 32.9779503 263.57707 48.4567757 266.398292 48.4567757 269.730736 32.8589208 269.730736 48.4567757"></polygon>
                    <path d="M279.50707,28.4188235 L281.805066,28.4188235 C282.459349,28.4188235 282.99158,28.6178727 283.386751,29.0089694 C283.789925,29.4230717 284.005019,29.9842104 283.982009,30.5623533 L283.982009,34.0202079 C283.989012,34.5923493 283.757912,35.141485 283.345733,35.5375829 C282.938557,35.9496847 282.381315,36.1767408 281.802064,36.1677386 L279.504069,36.1677386 L279.50707,28.4188235 Z M285.713759,37.8941653 C286.788224,36.8639107 287.387484,35.4345574 287.369476,33.9461896 L287.369476,30.4983374 C287.369476,28.9019429 286.881264,27.5736146 285.916847,26.547361 C284.876396,25.4800972 283.459782,24.936963 281.704022,24.936963 L276.000551,24.936963 L276.000551,48.4567757 L279.504069,48.4567757 L279.504069,39.5255685 L281.711025,39.5255685 C283.211675,39.5495744 284.657301,38.9604288 285.713759,37.8941653 L285.713759,37.8941653 Z" id="Fill-16" fill="#FFFFFF"></path>
                    <path d="M293.28944,36.1650379 L293.28944,28.4191236 L295.586435,28.4191236 C297.033062,28.4191236 297.766379,29.1403018 297.766379,30.5616531 L297.766379,34.0205079 C297.773382,34.5926493 297.543283,35.141785 297.131104,35.5378829 C296.722927,35.9489845 296.165686,36.1760407 295.586435,36.1680387 L293.28944,36.1650379 Z M295.894569,39.5958858 L298.101525,48.4570758 L301.898169,48.4570758 L299.205003,38.1715338 L299.244019,38.1375254 C300.526575,36.9992441 301.174856,35.5898958 301.174856,33.9464896 L301.174856,30.4986375 C301.174856,28.813221 300.761677,27.4838924 299.933318,26.5446603 C298.995912,25.4803973 297.500264,24.9362628 295.489393,24.9362628 L289.784922,24.9362628 L289.784922,48.4570758 L293.28944,48.4570758 L293.28944,39.5258685 L295.883564,39.5258685 L295.894569,39.5958858 Z" id="Fill-17" fill="#FFFFFF"></path>
                    <polygon id="Fill-18" fill="#FFFFFF" points="314.431898 28.3429047 314.431898 24.9170581 304.150445 24.9170581 304.150445 48.4568758 314.431898 48.4568758 314.431898 45.0310291 307.653962 45.0310291 307.653962 38.3993901 312.606107 38.3993901 312.606107 34.9735435 307.653962 34.9735435 307.653962 28.3429047"></polygon>
                    <path d="M318.674736,47.7148924 C319.600137,48.3950605 320.786651,48.7391455 322.200263,48.7391455 C322.880558,48.7501483 323.558852,48.6621265 324.214135,48.4790813 C325.280597,48.1580019 326.114959,47.6018645 326.697211,46.8236721 C327.587597,45.6723876 328.026787,44.2640395 328.000776,42.6396381 C327.961759,41.8674472 327.77968,41.1082596 327.463543,40.4020851 C327.302473,40.0229914 327.118393,39.6549004 326.912304,39.2988124 C326.340056,38.3435763 325.638753,37.472361 324.829402,36.7081722 C324.553282,36.4331042 324.010047,35.9609875 323.143672,35.2578137 C322.547414,34.8027012 321.993173,34.2955759 321.488955,33.7404387 C320.528539,32.6031576 320.033325,31.471878 320.033325,30.3726064 C320.013316,29.7504526 320.165382,29.1343003 320.473515,28.5921663 C320.794654,28.012023 321.413923,27.659936 322.07721,27.6819414 C322.734495,27.6819414 323.245716,27.8889926 323.594867,28.2970934 C324.055067,28.8312254 324.346193,29.5804106 324.459242,30.5236437 L327.812694,29.9274964 C327.736661,29.0042682 327.468545,28.1080467 327.024353,27.2948457 C326.618177,26.5476611 326.02492,25.9195058 325.302607,25.4713951 C324.388211,24.9072557 323.271727,24.6321877 321.98617,24.6321877 C320.651592,24.6321877 319.517101,24.9642697 318.61571,25.6174312 C317.157079,26.7006989 316.416758,28.3351028 316.416758,30.4546266 C316.408755,31.6009099 316.685875,32.7311893 317.222107,33.7444397 C317.720323,34.6396609 318.584697,35.675917 319.789219,36.8081969 L320.379474,37.3593331 L323.052632,39.8219417 C323.987037,40.8101859 324.458241,41.8164346 324.458241,42.8166818 C324.458241,43.5058522 324.330186,44.0579886 324.075075,44.4310808 C323.582862,45.1962699 322.911571,45.5983693 322.084213,45.6243757 L321.995174,45.6243757 C321.422926,45.617374 320.882692,45.366312 320.50753,44.9342052 C319.914273,44.3170526 319.531107,43.3188059 319.368036,41.9644712 L316.033592,42.1885266 C316.093618,43.3098037 316.362735,44.4100756 316.825935,45.4323283 C317.235112,46.3395525 317.872388,47.1257468 318.674736,47.7148924" id="Fill-19" fill="#FFFFFF"></path>
                    <path d="M332.243313,47.7148924 C333.168714,48.3950605 334.355228,48.7391455 335.76884,48.7391455 C336.449135,48.7501483 337.127429,48.6621265 337.782713,48.4790813 C338.849175,48.1580019 339.683536,47.6018645 340.265788,46.8236721 C341.155174,45.6713874 341.593363,44.2640395 341.567352,42.6396381 C341.556347,41.9864767 341.376269,41.2332905 341.03112,40.4020851 C340.87005,40.0229914 340.68497,39.6549004 340.478881,39.2988124 C339.906633,38.3435763 339.205329,37.472361 338.394978,36.7081722 C338.118858,36.4331042 337.56762,35.9579868 336.711249,35.2578137 C336.117992,34.8007007 335.567753,34.2905747 335.068537,33.733437 C334.103119,32.6031576 333.609905,31.4708778 333.609905,30.3716061 C333.589897,29.7484521 333.741962,29.1322998 334.050096,28.5911661 C334.372236,28.0110227 334.992504,27.6589357 335.655791,27.6809411 C336.312076,27.6809411 336.824298,27.8879923 337.173449,28.2960932 C337.633648,28.8312254 337.923774,29.5784101 338.036823,30.5216432 L341.389275,29.9264961 C341.314242,29.003268 341.045126,28.1060462 340.600934,27.2938455 C340.192757,26.5466608 339.596498,25.9185056 338.872185,25.4713951 C337.956788,24.9072557 336.840305,24.6321877 335.554748,24.6321877 C334.22017,24.6321877 333.085678,24.9642697 332.185288,25.6174312 C330.725656,26.7077006 329.986336,28.3331023 329.986336,30.4526261 C329.978332,31.5999097 330.255452,32.7311893 330.792685,33.7444397 C331.2899,34.6396609 332.153274,35.675917 333.358797,36.8081969 L336.62121,39.8159402 C337.555614,40.8031842 338.026819,41.8094329 338.026819,42.8096801 C338.026819,43.4988504 337.898763,44.0509869 337.643653,44.4240791 C337.151439,45.1902685 336.482149,45.5913676 335.654791,45.617374 L335.564752,45.617374 C334.992504,45.6103723 334.45127,45.3593102 334.076107,44.9282037 C333.483851,44.3110512 333.099684,43.3118042 332.937614,41.9574695 L329.60317,42.1915273 C329.664196,43.3128045 329.932312,44.4120761 330.394513,45.435329 C330.805691,46.341553 331.441966,47.1257468 332.243313,47.7148924" id="Fill-20" fill="#FFFFFF"></path>
                    <polygon id="Fill-21" fill="#FFFFFF" points="344.099949 48.4568758 347.603467 48.4568758 347.603467 24.937063 344.099949 24.937063"></polygon>
                    <path d="M358.13763,43.1115547 C358.144633,43.6796951 357.913533,44.2258301 357.500354,44.6159265 C357.091176,45.0230271 356.533935,45.2460822 355.956685,45.23708 C355.377434,45.245082 354.819192,45.0220269 354.404012,44.617927 C353.984831,44.2298311 353.749729,43.6826959 353.756732,43.1115547 L353.756732,30.1483509 C353.749729,29.5772098 353.984831,29.0300746 354.404012,28.6419787 C354.818192,28.2378788 355.377434,28.0158239 355.956685,28.0248261 C356.533935,28.0138234 357.091176,28.2368785 357.500354,28.6439792 C357.914533,29.0340756 358.145633,29.5792103 358.13763,30.1483509 L358.13763,43.1115547 Z M356.054727,24.6319876 C354.544073,24.6109824 353.088443,25.1991278 352.014978,26.2623906 C350.921504,27.2856435 350.310239,28.7229987 350.330248,30.2203687 L350.330248,43.1505644 C350.31224,44.6409327 350.915501,46.0712862 351.994969,47.0995403 C353.069434,48.1748061 354.535069,48.7659522 356.054727,48.7379452 C357.571384,48.7619512 359.034018,48.1758063 360.114486,47.110543 C361.206959,46.0862899 361.818224,44.6499349 361.798215,43.1525648 L361.798215,30.221369 C361.815223,28.7290002 361.20796,27.2976464 360.122489,26.2733933 C359.045023,25.1971273 357.577387,24.6049809 356.054727,24.6319876 L356.054727,24.6319876 Z" id="Fill-22" fill="#FFFFFF"></path>
                    <polygon id="Fill-23" fill="#FFFFFF" points="377 48.4567757 377 24.916958 373.496482 24.916958 373.496482 41.3200119 368.48031 24.916958 364.503587 24.916958 364.503587 48.4567757 368.008105 48.4567757 368.008105 32.8469179 373.201355 48.4567757"></polygon>
                </g>
            </g>
        </g>
    </g>
</svg>